# xmcd CD database file
#
# Track frame offsets:
#	150
#	15875
#	32815
#	44940
#	60810
#	75765
#	92402
#	110052
#	120687
#	134202
#	145845
#	161584
#	180622
#	192915
#
# Disc length: 2693 seconds
#
# Revision: 0
# Processed by: cddbd v1.5.1PL0 Copyright (c) Steve Scherf et al.
# Submitted via: CDex 1.51
#
DISCID=b50a830e
DTITLE=Paula MacAskill - Hit By Love (vol. 5)
DYEAR=1900
DGENRE=Country
TTITLE0=Lone Star State Of Mind
TTITLE1=Hurt
TTITLE2=Hit By Love
TTITLE3=Like We Never Had A Broken Heart
TTITLE4=Any Man Of Mine
TTITLE5=From This Moment On
TTITLE6=Whose Bed Have Your Boots Been Under
TTITLE7=Don't Go Away Mad
TTITLE8=I Miss Who I Was With You
TTITLE9=One More Goodbye
TTITLE10=Mercury Blues
TTITLE11=The Woman In Me Needs The Man In You
TTITLE12=That's What I Like About You
TTITLE13=Promo
EXTD=
EXTT0=
EXTT1=
EXTT2=
EXTT3=
EXTT4=
EXTT5=
EXTT6=
EXTT7=
EXTT8=
EXTT9=
EXTT10=
EXTT11=
EXTT12=
EXTT13=
PLAYORDER=
